PathFileType	3	(X/Y/Z)	C:\Users\koon_\Desktop\
DataRate	CameraRate	NumFrames	NumMarkers	Units	OrigDataRate	OrigDataStartFrame	OrigNumFrames
100.0	100.0	8	27	mm	100.0	1653	3304	
Frame#	Time	GM:LFHD			GM:RFHD			GM:LBHD			GM:RBHD			GM:C7			GM:T10			GM:CLAV			GM:STRN			GM:RBAK			GM:LSHO			GM:LUPA			GM:LELB			GM:LFRA			GM:LWRA			GM:LWRB			GM:LFIN			GM:RSHO			GM:RUPA			GM:RELB			GM:RFRA			GM:RWRA			GM:RWRB			GM:RFIN			GM:LASI			GM:RASI			GM:LPSI			GM:RPSI			
		X1	Y1	Z1	X2	Y2	Z2	X3	Y3	Z3	X4	Y4	Z4	X5	Y5	Z5	X6	Y6	Z6	X7	Y7	Z7	X8	Y8	Z8	X9	Y9	Z9	X10	Y10	Z10	X11	Y11	Z11	X12	Y12	Z12	X13	Y13	Z13	X14	Y14	Z14	X15	Y15	Z15	X16	Y16	Z16	X17	Y17	Z17	X18	Y18	Z18	X19	Y19	Z19	X20	Y20	Z20	X21	Y21	Z21	X22	Y22	Z22	X23	Y23	Z23	X24	Y24	Z24	X25	Y25	Z25	X26	Y26	Z26	X27	Y27	Z27	
1653	16.52	169.20081	1571.3899	-34.840313	15.018838	1562.109	-39.627434	173.27507	1572.21	-168.25935	10.365417	1562.858	-155.40643	98.606812	1409.6809	-226.51251	96.73645	1225.6342	-301.77414	108.77717	1329.2394	-77.24057	105.82013	1178.5273	-55.098778	0.49438292	1307.2723	-280.96634	257.70901	1392.6886	-169.7162	359.08859	1362.5149	-154.20222	531.21417	1259.9204	-109.54229	448.84561	1323.7064	-3.738173	431.65735	1350.0283	62.145573	447.16687	1293.9675	90.767113	424.75311	1344.1903	163.33081	-63.927868	1394.9999	-140.7693	-230.21675	1309.8944	-64.474663	-314.69415	1261.5609	-28.45129	-247.06389	1316.4028	14.887111	-194.42358	1340.9883	130.87857	-201.98083	1285.5452	153.46474	-159.1059	1326.6665	225.95639	224.12241	884.2392	-113.41717	-69.136711	905.89374	-97.971985	145.17218	923.88672	-318.63724	-16.143547	915.91235	-310.42651
1654	16.53	164.12448	1572.0369	-35.517174	9.9901409	1562.6301	-41.74065	169.48863	1573.0873	-168.94662	6.4600964	1563.4626	-157.66788	96.405647	1409.9617	-227.99655	96.059822	1225.5063	-302.4364	104.38649	1330.3422	-78.388351	101.652	1179.6434	-55.645119	-0.92712152	1306.7701	-283.02325	253.98749	1394.5652	-168.38239	354.80435	1367.076	-149.03027	526.47083	1269.1874	-93.823387	443.0809	1333.5925	10.87621	425.51871	1360.3152	76.235924	440.91882	1304.3185	105.53756	418.94434	1355.0416	177.23531	-66.481247	1396.4969	-144.65346	-233.27852	1316.1685	-64.923607	-317.26324	1269.9387	-26.359055	-250.29016	1325.0636	17.548973	-200.08687	1351.3414	134.71468	-208.50706	1296.2563	157.92755	-167.20505	1338.2045	230.67732	221.70441	884.79932	-111.81447	-71.486092	906.10669	-99.28537	145.01921	924.14075	-317.96875	-16.330513	916.16406	-311.8721
1655	16.54	159.10094	1572.5637	-36.355694	4.996078	1563.0209	-43.96825	165.68423	1573.8671	-169.69325	2.6807182	1564.025	-159.73445	94.052864	1410.187	-229.70255	95.450577	1225.3818	-303.07935	99.962433	1331.4348	-79.429085	97.630028	1180.7075	-56.130863	-2.3565457	1306.4865	-285.19757	250.16269	1396.3297	-167.19434	350.20654	1371.5131	-143.86784	521.08374	1278.3447	-78.476784	436.52222	1343.3114	25.165009	418.79575	1370.3772	90.281487	434.55969	1314.6929	120.14066	412.29129	1366.0631	191.21358	-68.912117	1397.9111	-148.4353	-235.28787	1322.3462	-64.833755	-319.15884	1278.3126	-23.758039	-252.62288	1333.4211	20.632813	-205.01393	1361.5063	138.87718	-214.5004	1306.8434	162.73335	-174.63785	1349.5276	235.83012	219.55511	885.4173	-110.20105	-73.77961	906.46637	-100.73008	144.95944	924.40045	-316.97925	-16.646605	916.20001	-312.53302
1656	16.55	154.17628	1573.1194	-37.07206	0.094138995	1563.3901	-45.9758	161.95642	1574.6239	-170.37305	-1.1662829	1564.6093	-161.78671	91.758926	1410.4047	-231.12285	94.773247	1225.2822	-303.66321	95.596565	1332.441	-80.683655	93.611427	1181.6488	-56.717075	-3.836776	1306.1655	-287.22952	246.31389	1397.9969	-165.83636	345.10864	1375.6946	-138.54848	515.013	1287.3442	-63.775501	429.47845	1353.0078	39.236233	411.3371	1380.4307	104.0781	427.81912	1325.1947	134.46692	404.81552	1377.1661	204.98796	-71.300888	1399.3044	-151.96558	-236.35474	1328.0093	-64.031349	-320.59406	1286.5419	-20.807394	-254.56229	1341.9407	24.124859	-209.49844	1371.4595	143.32271	-219.97385	1317.296	167.7852	-181.65007	1360.7106	241.26712	217.57924	885.98279	-108.69785	-76.109795	906.76306	-102.13338	144.71548	924.66614	-316.34567	-16.965822	916.13281	-313.12784
1657	16.56	149.32689	1573.5575	-37.856247	-4.7476201	1563.6941	-47.968903	158.20528	1575.2878	-171.07597	-4.9635053	1565.1039	-163.93312	89.523018	1410.5851	-232.66426	94.128273	1225.1636	-304.22894	92.202049	1333.3303	-82.229874	89.682816	1182.5736	-57.411869	-5.3194304	1305.7745	-288.7706	242.36211	1399.5461	-164.64235	340.01895	1380.0328	-133.39505	507.69354	1296.0433	-48.876579	421.80414	1362.5736	52.865089	403.35992	1390.4358	117.5029	420.65558	1335.8047	148.61127	396.76703	1388.1454	218.57414	-73.632217	1400.7118	-155.29515	-237.11839	1333.8356	-62.95467	-321.50369	1294.7174	-17.346008	-255.82713	1350.2021	28.269066	-213.44576	1381.4153	148.19312	-224.84473	1327.5112	173.17493	-188.38272	1371.6805	246.95601	215.36748	886.49457	-107.17136	-78.286613	907.08942	-103.54377	144.57266	924.91522	-315.85431	-17.240917	916.15582	-313.81653
1658	16.57	144.58986	1573.967	-38.59251	-9.4420805	1563.876	-49.94577	154.46414	1575.957	-171.86731	-8.7607613	1565.5115	-165.89911	87.245407	1410.7637	-234.03265	93.474983	1225.0593	-304.7818	88.057327	1334.1594	-83.41008	85.82827	1183.3087	-58.131756	-6.8837934	1305.3889	-290.0228	238.48456	1401.0125	-163.39609	334.60825	1384.0233	-128.27037	499.80023	1304.6478	-34.818066	413.15134	1371.9109	66.373276	394.59857	1400.3621	130.82324	412.88608	1346.4677	162.56406	388.2001	1399.0308	231.85988	-75.92054	1402.0481	-158.36815	-237.56183	1339.7424	-61.659901	-321.84799	1302.7748	-13.594787	-256.83524	1358.4781	32.68782	-216.88474	1391.1073	153.49101	-229.2137	1337.4037	178.71004	-194.78279	1382.5039	252.83038	213.18468	887.04297	-105.70248	-80.459534	907.41833	-105.08999	144.37549	925.12427	-315.31702	-17.404081	916.10059	-314.55936
1659	16.58	139.90999	1574.2826	-39.287842	-14.107461	1563.9437	-51.794975	150.8042	1576.6068	-172.49323	-12.436701	1565.8363	-167.83083	84.982414	1410.9093	-235.4343	92.828278	1224.9972	-305.36325	84.015495	1334.9335	-84.569748	82.028679	1183.9452	-58.878716	-8.4027767	1305.1833	-291.51138	234.58411	1402.4031	-162.26074	328.93039	1387.8718	-123.13552	491.04639	1313.0878	-21.180048	403.73383	1380.9636	79.538849	385.38879	1410.2736	143.71907	404.62958	1356.944	176.09671	379.33014	1409.9125	244.81253	-78.365616	1403.2153	-161.24564	-237.91858	1346.0388	-60.308212	-321.53668	1310.5348	-9.5431147	-257.49103	1366.6936	37.458672	-219.67462	1400.3691	158.95445	-232.97672	1347.1545	184.60503	-200.51831	1393.1676	259.00345	211.25252	887.54376	-104.28443	-82.656036	907.67212	-106.59857	144.21284	925.28467	-314.72806	-17.644342	916.0943	-315.39682
1660	16.59	135.22668	1574.6265	-40.012314	-18.652969	1563.9659	-53.681221	147.20363	1577.2809	-173.11139	-16.032402	1566.0277	-169.69423	82.814934	1411.0925	-236.68985	92.151321	1224.9626	-305.87149	80.014816	1335.6173	-85.659851	78.391388	1184.5795	-59.65847	-10.240965	1304.8873	-292.47549	230.77016	1403.7723	-161.04623	323.06116	1391.6482	-118.19003	481.49915	1321.3405	-8.0872307	394.02921	1389.9526	92.120941	375.98492	1419.7997	156.06169	395.9744	1367.1652	189.23021	370.17291	1420.7749	257.31656	-80.379326	1404.4685	-163.34122	-237.77936	1351.9446	-58.306221	-320.7926	1318.1066	-5.1799607	-257.46048	1374.6403	42.625664	-222.40266	1409.7635	164.65395	-236.57861	1356.8322	190.55589	-205.87419	1403.6649	265.31607	209.3904	887.92236	-102.93267	-84.747643	907.91071	-108.07761	143.97473	925.43982	-314.25366	-17.885374	916.08344	-316.21378
